<svg width="726" height="289" viewBox="0 0 726 289" fill="none" xmlns="http://www.w3.org/2000/svg">
<rect x="4" y="14" width="391" height="271" rx="27" stroke="url(#paint0_linear)" stroke-width="8"/>
<rect x="37" y="51" width="324" height="196" rx="24" stroke="url(#paint1_linear)" stroke-width="6"/>
<circle cx="274.5" cy="149.5" r="57" stroke="#F52424" stroke-width="5"/>
<circle cx="274.5" cy="149.5" r="47" stroke="#FF006B" stroke-opacity="0.74" stroke-width="3"/>
<circle cx="274" cy="149" r="27.5" stroke="#484848" stroke-width="5"/>
<circle cx="274" cy="149" r="20.5" stroke="#FA2873" stroke-width="5"/>
<path d="M85.0023 1.76658L73.9805 14.7666C71.2262 18.0152 73.5352 23 77.7943 23H143.431C147.259 23 149.667 18.8728 147.783 15.5397L140.435 2.53971C139.548 0.970369 137.885 0 136.083 0H88.816C87.347 0 85.9523 0.646046 85.0023 1.76658Z" fill="#484848"/>
<rect x="68.5" y="102.5" width="70" height="22" rx="11" fill="#FCFCFC" stroke="#FA2873" stroke-width="3"/>
<circle cx="79.5" cy="113.5" r="12.5" fill="#F52424"/>
<circle cx="274.5" cy="149.5" r="11.5" fill="#636363"/>
<path d="M473.706 107.917C473.921 108.529 474.028 108.973 474.028 109.249C474.028 109.586 473.936 109.831 473.752 109.984C473.599 110.137 473.431 110.413 473.247 110.811C473.094 111.148 472.894 111.393 472.649 111.546C472.435 111.668 472.205 111.791 471.96 111.913C471.746 112.036 471.531 112.173 471.317 112.327C471.103 112.449 470.934 112.663 470.812 112.97C470.597 113.49 470.276 113.873 469.847 114.118C469.448 114.363 469.004 114.486 468.514 114.486C468.024 114.486 467.534 114.363 467.044 114.118C466.585 113.843 466.064 113.506 465.482 113.108C464.93 112.709 464.287 112.281 463.552 111.821C462.847 111.331 461.974 110.887 460.933 110.489C459.892 110.091 458.666 109.769 457.257 109.524C455.848 109.249 454.194 109.111 452.295 109.111C449.538 109.111 447.057 109.509 444.852 110.305C442.677 111.071 440.67 112.434 438.833 114.394C437.607 115.711 436.704 117.073 436.122 118.482C435.54 119.86 435.249 121.193 435.249 122.479C435.249 123.643 435.509 124.684 436.03 125.603C436.581 126.521 437.316 127.363 438.235 128.129C439.154 128.864 440.226 129.553 441.452 130.196C442.707 130.809 444.04 131.421 445.449 132.034C446.889 132.616 448.374 133.198 449.906 133.779C451.468 134.361 453.015 134.989 454.546 135.663C456.813 136.673 458.85 137.791 460.657 139.016C462.465 140.211 463.996 141.543 465.252 143.013C466.508 144.483 467.473 146.075 468.147 147.79C468.821 149.505 469.158 151.358 469.158 153.349C469.158 155.891 468.713 158.295 467.825 160.561C466.937 162.797 465.574 164.757 463.736 166.441C461.898 168.125 459.585 169.458 456.798 170.438C454.041 171.448 450.779 171.953 447.011 171.953C444.377 171.953 442.064 171.632 440.073 170.989C438.082 170.346 436.397 169.58 435.019 168.692C433.671 167.834 432.599 166.962 431.803 166.073C431.037 165.216 430.547 164.542 430.332 164.052C430.179 163.715 430.072 163.44 430.011 163.225C429.98 162.98 429.965 162.781 429.965 162.628C429.965 162.291 430.026 162.046 430.149 161.893C430.302 161.74 430.547 161.403 430.884 160.883C431.006 160.668 431.175 160.515 431.389 160.423C431.604 160.301 431.818 160.193 432.032 160.102C432.278 159.979 432.507 159.841 432.722 159.688C432.936 159.535 433.12 159.305 433.273 158.999C433.763 157.988 434.483 157.483 435.433 157.483C435.953 157.483 436.459 157.667 436.949 158.034C437.47 158.371 438.036 158.8 438.649 159.321C439.261 159.841 439.951 160.423 440.716 161.066C441.513 161.679 442.447 162.245 443.519 162.766C444.591 163.287 445.816 163.731 447.195 164.098C448.604 164.435 450.243 164.603 452.111 164.603C454.439 164.603 456.4 164.374 457.992 163.914C459.585 163.455 460.856 162.827 461.806 162.031C462.786 161.204 463.491 160.239 463.92 159.137C464.348 158.034 464.563 156.84 464.563 155.554C464.563 153.961 464.257 152.583 463.644 151.419C463.062 150.256 462.235 149.23 461.163 148.342C460.121 147.453 458.865 146.673 457.395 145.999C455.925 145.294 454.301 144.605 452.525 143.932C450.779 143.258 448.91 142.569 446.919 141.864C444.959 141.129 442.953 140.287 440.9 139.338C439.277 138.603 437.791 137.791 436.443 136.903C435.096 135.984 433.932 134.958 432.951 133.825C432.002 132.692 431.267 131.421 430.746 130.013C430.225 128.573 429.965 126.95 429.965 125.143C429.965 122.969 430.287 120.84 430.93 118.758C431.604 116.645 432.538 114.669 433.733 112.832C434.927 110.964 436.351 109.249 438.006 107.687C439.69 106.125 441.528 104.778 443.519 103.644C445.51 102.481 447.639 101.593 449.906 100.98C452.172 100.337 454.516 100.015 456.936 100.015C459.601 100.015 461.944 100.352 463.966 101.026C465.987 101.669 467.687 102.435 469.066 103.323C470.444 104.18 471.516 105.053 472.282 105.941C473.048 106.799 473.522 107.457 473.706 107.917ZM503.388 148.25C503.878 148.25 504.123 148.51 504.123 149.031C504.123 149.245 504.077 149.459 503.985 149.674C503.005 152.399 502.117 154.803 501.32 156.886C500.524 158.938 499.743 160.668 498.977 162.077C498.211 163.455 497.399 164.496 496.542 165.201C495.715 165.905 494.781 166.257 493.739 166.257C492.391 166.257 491.335 165.92 490.569 165.247C489.803 164.542 489.236 163.685 488.869 162.674C488.501 161.663 488.271 160.592 488.179 159.458C488.088 158.295 488.042 157.253 488.042 156.335C488.042 154.681 488.088 153.119 488.179 151.649C488.302 150.148 488.363 149.015 488.363 148.25C488.363 147.086 488.042 146.504 487.398 146.504C486.908 146.504 486.541 146.841 486.296 147.515C486.143 147.882 485.913 148.556 485.606 149.536C485.3 150.516 484.933 151.634 484.504 152.889C484.106 154.114 483.692 155.401 483.263 156.748C482.834 158.065 482.436 159.244 482.069 160.285C481.578 161.633 481.119 162.735 480.69 163.593C480.292 164.42 479.909 165.063 479.541 165.522C479.174 165.982 478.806 166.288 478.439 166.441C478.071 166.594 477.688 166.671 477.29 166.671C476.953 166.671 476.601 166.609 476.233 166.487C475.896 166.364 475.59 166.15 475.314 165.844C475.039 165.538 474.809 165.139 474.625 164.649C474.441 164.129 474.349 163.47 474.349 162.674C474.349 161.847 474.411 160.592 474.533 158.907C474.625 157.192 474.763 155.217 474.947 152.981C475.1 150.746 475.284 148.342 475.498 145.769C475.743 143.197 475.988 140.609 476.233 138.006C476.478 135.403 476.708 132.891 476.922 130.472C477.168 128.022 477.382 125.832 477.566 123.903C477.903 120.534 478.24 117.548 478.577 114.945C478.944 112.342 479.419 110.305 480.001 108.835C480.185 108.376 480.384 108.008 480.598 107.733C480.813 107.457 481.042 107.197 481.287 106.952C481.563 106.707 481.854 106.462 482.16 106.217C482.497 105.941 482.88 105.589 483.309 105.16C484.106 104.395 484.703 103.859 485.101 103.553C485.53 103.246 485.897 103.093 486.204 103.093C486.479 103.093 486.77 103.2 487.077 103.415C487.414 103.598 487.582 103.966 487.582 104.517C487.582 104.64 487.536 104.885 487.444 105.252C487.352 105.62 487.184 106.37 486.939 107.503C486.694 108.636 486.418 110.014 486.112 111.638C485.806 113.261 485.484 115.083 485.147 117.104C484.841 119.095 484.565 121.162 484.32 123.306C484.014 125.694 483.723 128.098 483.447 130.518C483.202 132.937 482.972 135.28 482.758 137.546C482.543 139.782 482.344 141.895 482.16 143.886C481.977 145.846 481.823 147.591 481.701 149.123C481.578 150.623 481.487 151.863 481.425 152.843C481.364 153.793 481.333 154.359 481.333 154.543C481.333 155.033 481.364 155.278 481.425 155.278C481.456 155.278 481.578 154.987 481.793 154.405C482.038 153.793 482.329 153.012 482.666 152.063C483.003 151.113 483.386 150.057 483.815 148.893C484.243 147.698 484.703 146.504 485.193 145.31C485.683 144.115 486.188 142.998 486.709 141.956C487.23 140.915 487.751 140.042 488.271 139.338C488.884 138.511 489.527 137.898 490.201 137.5C490.875 137.102 491.534 136.903 492.177 136.903C493.371 136.903 494.244 137.439 494.796 138.511C495.378 139.552 495.669 140.884 495.669 142.508C495.669 143.212 495.608 144.115 495.485 145.218C495.393 146.32 495.286 147.484 495.163 148.709C495.071 149.903 494.964 151.083 494.842 152.246C494.75 153.379 494.704 154.344 494.704 155.14C494.704 155.998 494.75 156.702 494.842 157.253C494.934 157.805 495.056 158.249 495.209 158.586C495.393 158.923 495.577 159.168 495.761 159.321C495.975 159.443 496.205 159.504 496.45 159.504C496.94 159.504 497.399 159.244 497.828 158.723C498.288 158.172 498.747 157.437 499.207 156.518C499.666 155.6 500.141 154.528 500.631 153.303C501.121 152.047 501.657 150.715 502.239 149.306C502.392 148.908 502.561 148.633 502.745 148.479C502.959 148.326 503.173 148.25 503.388 148.25ZM533.529 149.674C532.549 152.399 531.66 154.803 530.864 156.886C530.099 158.938 529.317 160.668 528.52 162.077C527.725 163.455 526.851 164.496 525.902 165.201C524.983 165.905 523.895 166.257 522.64 166.257C521.567 166.257 520.664 165.951 519.929 165.338C519.194 164.695 518.612 163.899 518.183 162.95C517.754 161.97 517.448 160.898 517.264 159.734C517.08 158.57 516.988 157.453 516.988 156.381C516.988 155.584 516.988 154.819 516.988 154.084C516.988 153.349 517.019 152.66 517.08 152.017C516.406 154.742 515.717 157.024 515.012 158.861C514.339 160.699 513.649 162.169 512.945 163.271C512.24 164.374 511.49 165.17 510.693 165.66C509.928 166.119 509.116 166.349 508.258 166.349C507.615 166.349 506.956 166.181 506.283 165.844C505.639 165.538 505.042 164.925 504.491 164.006C503.939 163.088 503.48 161.801 503.112 160.148C502.775 158.463 502.607 156.258 502.607 153.533C502.607 152.859 502.622 152.047 502.653 151.098C502.683 150.118 502.745 149.107 502.836 148.066C502.928 146.994 503.036 145.953 503.158 144.942C503.311 143.901 503.495 142.967 503.71 142.14C503.801 141.773 503.924 141.328 504.077 140.808C504.23 140.287 504.383 139.95 504.537 139.797C504.873 139.491 505.149 139.215 505.364 138.97C505.609 138.725 505.808 138.603 505.961 138.603C506.175 138.603 506.344 138.695 506.466 138.878C506.619 139.032 506.773 139.108 506.926 139.108C507.018 139.108 507.186 139.032 507.431 138.878C507.707 138.725 507.998 138.557 508.304 138.373C508.611 138.189 508.901 138.021 509.177 137.868C509.483 137.715 509.698 137.638 509.82 137.638C510.188 137.638 510.372 137.975 510.372 138.649C510.372 138.833 510.356 139.047 510.326 139.292C510.295 139.537 510.249 139.828 510.188 140.165C509.912 142.125 509.713 144.023 509.591 145.861C509.499 147.668 509.453 149.613 509.453 151.695C509.453 152.859 509.468 153.915 509.499 154.865C509.529 155.814 509.591 156.641 509.683 157.345C509.805 158.019 509.989 158.555 510.234 158.953C510.479 159.321 510.816 159.504 511.245 159.504C511.857 159.504 512.424 159.106 512.945 158.31C513.466 157.483 513.94 156.427 514.369 155.14C514.829 153.854 515.257 152.43 515.656 150.868C516.054 149.306 516.437 147.79 516.804 146.32C517.172 144.82 517.539 143.442 517.907 142.186C518.305 140.93 518.703 139.981 519.102 139.338C519.5 138.725 520.021 138.22 520.664 137.822C521.338 137.424 521.966 137.225 522.548 137.225C523.222 137.225 523.696 137.485 523.972 138.006C524.278 138.496 524.432 139.46 524.432 140.9C524.432 141.941 524.401 142.921 524.34 143.84C524.278 144.758 524.217 145.708 524.156 146.688C524.095 147.668 524.033 148.724 523.972 149.858C523.911 150.96 523.88 152.2 523.88 153.578C523.88 154.834 523.926 155.86 524.018 156.656C524.14 157.422 524.294 158.019 524.477 158.448C524.661 158.877 524.86 159.168 525.075 159.321C525.289 159.474 525.504 159.55 525.718 159.55C526.239 159.55 526.729 159.321 527.188 158.861C527.648 158.402 528.107 157.743 528.567 156.886C529.057 155.998 529.547 154.926 530.037 153.67C530.557 152.415 531.125 150.991 531.737 149.398C531.89 149.031 532.074 148.755 532.288 148.571C532.503 148.357 532.732 148.25 532.977 148.25C533.162 148.25 533.315 148.326 533.437 148.479C533.59 148.602 533.667 148.786 533.667 149.031C533.667 149.245 533.62 149.459 533.529 149.674ZM550.438 149.674C549.458 152.491 548.568 154.941 547.773 157.024C547.007 159.106 546.226 160.852 545.429 162.261C544.633 163.639 543.775 164.68 542.856 165.384C541.937 166.058 540.835 166.395 539.548 166.395C538.813 166.395 538.031 166.181 537.205 165.752C536.378 165.354 535.612 164.573 534.907 163.409C534.203 162.245 533.62 160.622 533.162 158.54C532.702 156.427 532.472 153.686 532.472 150.317C532.472 149.429 532.503 148.265 532.564 146.826C532.656 145.356 532.748 143.733 532.84 141.956C532.962 140.149 533.1 138.251 533.253 136.26C533.407 134.239 533.575 132.218 533.759 130.196C533.606 130.227 533.468 130.258 533.345 130.288C533.223 130.288 533.085 130.288 532.931 130.288C531.278 130.472 530.067 130.64 529.302 130.793C528.536 130.916 528.076 131.054 527.924 131.207C527.771 131.329 527.694 131.483 527.694 131.666C527.694 131.819 527.694 131.973 527.694 132.126C527.663 132.248 527.617 132.371 527.556 132.493C527.464 132.585 527.295 132.631 527.05 132.631C526.897 132.631 526.714 132.6 526.499 132.539C526.254 132.447 526.024 132.325 525.81 132.172C525.565 131.988 525.366 131.773 525.213 131.528C525.059 131.253 524.983 130.931 524.983 130.564C524.983 130.227 525.059 129.875 525.213 129.507C525.335 129.14 525.504 128.788 525.718 128.451C525.932 128.083 526.254 127.639 526.683 127.118C527.081 126.598 527.632 126.077 528.337 125.557C529.011 125.005 529.854 124.5 530.864 124.041C531.875 123.581 533.07 123.214 534.448 122.938C534.601 121.652 534.755 120.519 534.907 119.539C535.091 118.528 535.275 117.64 535.458 116.874C535.643 116.078 535.811 115.374 535.964 114.761C536.147 114.118 536.332 113.536 536.516 113.016C536.883 111.821 537.342 110.918 537.894 110.305C538.445 109.662 539.073 108.988 539.778 108.284C540.544 107.518 541.187 107.013 541.707 106.768C542.259 106.493 542.673 106.339 542.948 106.309C543.223 106.309 543.469 106.401 543.683 106.584C543.928 106.738 544.051 107.028 544.051 107.457C544.051 107.702 544.035 107.917 544.005 108.1C543.974 108.253 543.944 108.391 543.913 108.514C543.821 108.851 543.667 109.448 543.454 110.305C543.27 111.163 543.04 112.219 542.764 113.475C542.519 114.7 542.259 116.093 541.984 117.655C541.707 119.187 541.462 120.825 541.248 122.571C542.902 122.693 544.28 122.908 545.383 123.214C546.517 123.489 547.206 123.658 547.451 123.719C547.972 123.903 548.323 124.071 548.508 124.224C548.691 124.378 548.86 124.638 549.014 125.005C549.135 125.25 549.273 125.449 549.426 125.603C549.61 125.756 549.779 125.893 549.932 126.016C550.115 126.138 550.269 126.276 550.392 126.429C550.514 126.583 550.575 126.797 550.575 127.073C550.575 127.318 550.514 127.563 550.392 127.808C550.269 128.022 550.131 128.16 549.978 128.221C549.763 128.343 549.365 128.466 548.783 128.588C548.201 128.68 547.497 128.788 546.67 128.91C545.843 129.002 544.893 129.109 543.821 129.232C542.779 129.323 541.692 129.431 540.558 129.553C540.192 133.351 539.823 137.01 539.457 140.532C539.119 144.054 538.951 147.193 538.951 149.949C538.951 151.358 539.027 152.644 539.18 153.808C539.364 154.972 539.624 155.983 539.961 156.84C540.299 157.667 540.697 158.31 541.156 158.769C541.646 159.229 542.197 159.458 542.81 159.458C543.362 159.458 543.867 159.213 544.326 158.723C544.786 158.203 545.246 157.498 545.704 156.61C546.164 155.722 546.624 154.666 547.083 153.441C547.574 152.216 548.094 150.868 548.645 149.398C548.921 148.633 549.319 148.25 549.84 148.25C550.33 148.25 550.575 148.525 550.575 149.077C550.575 149.168 550.56 149.276 550.529 149.398C550.499 149.521 550.468 149.613 550.438 149.674ZM684.281 158.769C684.281 159.841 684.388 160.745 684.602 161.48C684.816 162.215 685.092 162.812 685.429 163.271C685.796 163.7 686.195 164.006 686.624 164.19C687.083 164.374 687.543 164.466 688.002 164.466C688.492 164.466 688.951 164.374 689.381 164.19C689.809 163.976 690.192 163.761 690.529 163.547C690.897 163.302 691.219 163.088 691.494 162.904C691.77 162.689 691.999 162.582 692.183 162.582C692.613 162.582 692.826 162.812 692.826 163.271C692.826 163.547 692.719 163.838 692.505 164.144C692.137 164.634 691.677 165.201 691.127 165.844C690.606 166.518 689.993 167.145 689.289 167.727C688.584 168.34 687.788 168.845 686.899 169.243C686.041 169.672 685.092 169.886 684.051 169.886C682.611 169.886 681.417 169.519 680.467 168.784C679.547 168.049 678.812 167.115 678.261 165.982C677.71 164.879 677.327 163.685 677.113 162.398C676.898 161.082 676.791 159.857 676.791 158.723L676.837 157.988C675.98 160.102 675.045 161.893 674.034 163.363C673.023 164.833 672.013 166.058 671.002 167.038C669.991 168.049 668.98 168.83 667.969 169.381C666.989 169.932 666.055 170.346 665.167 170.621C664.308 170.928 663.528 171.111 662.823 171.173C662.149 171.234 661.613 171.264 661.215 171.264C659.162 171.264 657.187 170.836 655.288 169.978C653.419 169.151 651.766 167.896 650.326 166.211C648.886 164.527 647.737 162.429 646.879 159.918C646.022 157.376 645.593 154.405 645.593 151.006C645.593 148.525 645.792 145.892 646.19 143.105C646.62 140.318 647.078 137.454 647.568 134.514C648.09 131.544 648.549 128.512 648.948 125.419C649.376 122.295 649.591 119.171 649.591 116.048C649.591 114.088 649.406 112.403 649.039 110.994C648.671 109.586 648.181 108.437 647.568 107.549C646.956 106.661 646.267 106.018 645.501 105.62C644.736 105.191 643.939 104.977 643.113 104.977C642.071 104.977 641.029 105.252 639.988 105.803C638.947 106.324 637.997 107.151 637.139 108.284C636.312 109.387 635.638 110.795 635.117 112.51C634.597 114.225 634.336 116.262 634.336 118.62C634.336 120.794 634.597 122.724 635.117 124.408C635.669 126.093 636.282 127.532 636.955 128.726C637.66 129.89 638.318 130.809 638.931 131.483C639.574 132.126 640.003 132.508 640.217 132.631C640.371 132.753 640.508 132.891 640.631 133.044C640.753 133.167 640.815 133.305 640.815 133.458C640.815 133.856 640.355 134.055 639.437 134.055C639.13 134.055 638.594 133.994 637.828 133.871C637.063 133.749 636.205 133.504 635.255 133.136C634.305 132.738 633.311 132.202 632.269 131.528C631.258 130.855 630.324 129.982 629.466 128.91C628.639 127.808 627.95 126.475 627.398 124.913C626.847 123.352 626.571 121.483 626.571 119.309C626.571 116.828 627.061 114.44 628.041 112.143C629.021 109.846 630.324 107.825 631.947 106.079C633.601 104.333 635.5 102.94 637.644 101.899C639.789 100.858 642.04 100.337 644.399 100.337C646.144 100.337 647.829 100.643 649.452 101.256C651.107 101.838 652.562 102.772 653.817 104.058C655.104 105.344 656.115 107.013 656.85 109.065C657.616 111.086 657.999 113.552 657.999 116.461C657.999 119.309 657.815 122.127 657.447 124.913C657.08 127.7 656.667 130.472 656.207 133.228C655.747 135.984 655.334 138.741 654.966 141.497C654.598 144.223 654.415 146.963 654.415 149.72C654.415 152.629 654.645 155.033 655.104 156.932C655.594 158.831 656.237 160.347 657.034 161.48C657.861 162.582 658.81 163.363 659.883 163.823C660.955 164.282 662.103 164.512 663.328 164.512C665.167 164.512 666.821 164.144 668.291 163.409C669.761 162.674 671.048 161.679 672.15 160.423C673.284 159.168 674.249 157.713 675.045 156.059C675.872 154.375 676.546 152.583 677.067 150.684C677.128 150.409 677.235 149.613 677.388 148.296C677.572 146.948 677.771 145.279 677.986 143.288C678.231 141.267 678.491 139.016 678.766 136.536C679.043 134.024 679.318 131.483 679.594 128.91C679.9 126.338 680.191 123.811 680.467 121.33C680.773 118.85 681.049 116.629 681.294 114.669C681.57 112.709 681.799 111.086 681.983 109.8C682.197 108.514 682.366 107.779 682.488 107.595C682.55 107.473 682.749 107.304 683.086 107.09C683.454 106.875 684.143 106.768 685.153 106.768C685.245 106.768 685.352 106.783 685.475 106.814C685.597 106.814 685.72 106.814 685.842 106.814C685.996 106.814 686.149 106.692 686.302 106.447C686.486 106.171 686.7 105.88 686.945 105.574C687.19 105.237 687.497 104.946 687.864 104.701C688.232 104.425 688.692 104.288 689.243 104.288C689.518 104.288 689.748 104.349 689.932 104.471C690.116 104.594 690.207 104.808 690.207 105.114L690.116 105.941C690.054 106.309 689.917 107.258 689.702 108.789C689.488 110.321 689.243 112.235 688.967 114.532C688.692 116.798 688.369 119.37 688.002 122.249C687.665 125.097 687.328 128.022 686.991 131.023C686.654 134.024 686.318 137.01 685.981 139.981C685.643 142.952 685.352 145.693 685.107 148.204C684.862 150.715 684.663 152.905 684.51 154.773C684.357 156.641 684.281 157.973 684.281 158.769ZM703.486 132.08C703.731 132.08 704.022 132.172 704.359 132.355C704.604 132.508 704.727 132.815 704.727 133.274C704.727 133.733 704.635 134.269 704.451 134.882C704.267 135.464 704.145 135.969 704.084 136.398C703.869 137.378 703.67 138.465 703.486 139.659C703.303 140.854 703.134 142.109 702.981 143.426C704.359 141.099 705.783 139.476 707.254 138.557C708.754 137.608 710.088 137.133 711.251 137.133C712.446 137.133 713.487 137.363 714.376 137.822C715.294 138.281 716.045 138.924 716.627 139.751C717.209 140.548 717.638 141.512 717.913 142.645C718.219 143.778 718.373 145.034 718.373 146.412C718.373 149.72 717.944 152.537 717.086 154.865C716.228 157.192 715.187 159.122 713.962 160.653C715.402 160.193 716.872 159.305 718.373 157.988C719.016 157.407 719.797 156.442 720.716 155.094C721.635 153.747 722.585 151.848 723.565 149.398C723.901 148.633 724.331 148.25 724.851 148.25C725.281 148.25 725.494 148.495 725.494 148.985C725.494 149.168 725.449 149.398 725.357 149.674C724.499 152.063 723.58 154.053 722.6 155.646C721.62 157.238 720.625 158.524 719.613 159.504C718.633 160.484 717.653 161.204 716.672 161.663C715.724 162.123 714.85 162.444 714.053 162.628L711.711 163.042C710.301 164.236 708.953 165.078 707.667 165.568C706.38 166.058 705.462 166.303 704.91 166.303C704.451 166.303 704.052 166.242 703.716 166.119C703.409 165.997 703.15 165.721 702.935 165.293C702.781 164.956 702.613 164.542 702.429 164.052C702.276 163.532 702.2 163.088 702.2 162.72C702.2 161.924 702.536 161.388 703.21 161.112C703.915 160.837 704.803 160.699 705.876 160.699C706.243 160.699 706.611 160.714 706.978 160.745C707.376 160.775 707.79 160.821 708.218 160.883C708.678 160.148 709.107 159.259 709.505 158.218C709.934 157.146 710.286 155.998 710.562 154.773C710.868 153.517 711.098 152.2 711.251 150.822C711.435 149.413 711.526 147.989 711.526 146.55C711.526 143.457 710.777 141.91 709.276 141.91C708.479 141.91 707.744 142.201 707.07 142.783C706.426 143.365 705.83 144.115 705.278 145.034C704.727 145.953 704.237 146.979 703.807 148.112C703.409 149.245 703.058 150.378 702.751 151.511C702.445 152.644 702.2 153.716 702.016 154.727C701.863 155.738 701.771 156.564 701.74 157.208L701.648 157.299C701.618 157.728 701.587 158.126 701.556 158.494C701.556 158.861 701.556 159.213 701.556 159.55C701.525 159.55 701.479 160.883 701.419 163.547C701.357 166.211 701.158 170.3 700.821 175.812C700.668 178.477 700.515 180.758 700.362 182.657C700.239 184.556 700.117 186.148 699.994 187.434C699.902 188.751 699.795 189.823 699.673 190.65C699.55 191.477 699.428 192.151 699.305 192.671C699.183 193.131 698.952 193.483 698.615 193.728C698.309 194.003 697.958 194.218 697.559 194.371C697.191 194.524 696.839 194.647 696.502 194.738C696.165 194.83 695.905 194.953 695.721 195.106C694.894 195.81 694.236 196.316 693.746 196.622C693.224 196.928 692.826 197.081 692.551 197.081C692.306 197.081 692.091 196.959 691.908 196.714C691.723 196.499 691.632 196.178 691.632 195.749C691.632 195.504 691.677 195.167 691.77 194.738C691.862 194.248 691.999 193.268 692.183 191.798C692.275 191.155 692.382 190.374 692.505 189.456C692.597 188.568 692.719 187.48 692.872 186.194C693.025 184.938 693.194 183.468 693.378 181.784C693.561 180.13 693.776 178.232 694.021 176.088C694.051 175.751 694.113 174.955 694.204 173.699C694.297 172.474 694.419 170.958 694.573 169.151C694.694 167.344 694.848 165.354 695.032 163.179C695.185 160.974 695.353 158.739 695.537 156.473C695.721 154.206 695.905 152.001 696.088 149.858C696.273 147.683 696.456 145.738 696.64 144.023C696.823 142.278 696.992 140.838 697.145 139.705C697.329 138.572 697.482 137.914 697.605 137.73C697.942 137.118 698.34 136.52 698.8 135.938C699.29 135.357 699.887 134.79 700.591 134.239C700.806 134.055 701.035 133.841 701.28 133.596C701.525 133.351 701.771 133.121 702.016 132.907C702.291 132.662 702.536 132.463 702.751 132.309C702.996 132.156 703.241 132.08 703.486 132.08Z" fill="#FF005C"/>
<path d="M567.346 149.674C566.366 152.491 565.477 154.941 564.681 157.024C563.915 159.106 563.134 160.852 562.337 162.261C561.541 163.639 560.684 164.68 559.764 165.384C558.846 166.058 557.743 166.395 556.456 166.395C555.721 166.395 554.94 166.181 554.113 165.752C553.286 165.354 552.521 164.573 551.816 163.409C551.111 162.245 550.529 160.622 550.07 158.54C549.61 156.427 549.38 153.686 549.38 150.317C549.38 149.429 549.411 148.265 549.472 146.826C549.564 145.356 549.656 143.732 549.749 141.956C549.87 140.149 550.008 138.251 550.161 136.26C550.315 134.239 550.484 132.217 550.667 130.196C550.514 130.227 550.376 130.257 550.253 130.288C550.131 130.288 549.994 130.288 549.84 130.288C548.186 130.472 546.976 130.64 546.21 130.793C545.445 130.916 544.985 131.054 544.832 131.207C544.679 131.329 544.603 131.482 544.603 131.666C544.603 131.819 544.603 131.972 544.603 132.126C544.571 132.248 544.525 132.371 544.464 132.493C544.372 132.585 544.204 132.631 543.959 132.631C543.806 132.631 543.622 132.6 543.408 132.539C543.163 132.447 542.932 132.325 542.719 132.172C542.474 131.988 542.274 131.773 542.121 131.528C541.968 131.253 541.891 130.931 541.891 130.564C541.891 130.227 541.968 129.875 542.121 129.507C542.243 129.14 542.412 128.787 542.627 128.451C542.841 128.083 543.163 127.639 543.591 127.118C543.989 126.598 544.541 126.077 545.246 125.557C545.919 125.005 546.762 124.5 547.773 124.041C548.783 123.581 549.978 123.214 551.356 122.938C551.509 121.652 551.663 120.519 551.816 119.539C551.999 118.528 552.183 117.64 552.367 116.874C552.551 116.078 552.72 115.374 552.873 114.761C553.056 114.118 553.24 113.536 553.424 113.016C553.791 111.821 554.251 110.918 554.803 110.305C555.353 109.662 555.982 108.988 556.686 108.284C557.452 107.518 558.095 107.013 558.615 106.768C559.167 106.492 559.581 106.339 559.856 106.309C560.132 106.309 560.377 106.401 560.592 106.584C560.837 106.737 560.959 107.028 560.959 107.457C560.959 107.702 560.943 107.917 560.913 108.1C560.883 108.253 560.852 108.391 560.821 108.514C560.73 108.851 560.576 109.448 560.362 110.305C560.178 111.163 559.949 112.219 559.672 113.475C559.427 114.7 559.167 116.093 558.892 117.655C558.616 119.187 558.37 120.825 558.157 122.571C559.81 122.693 561.189 122.907 562.291 123.214C563.425 123.489 564.114 123.658 564.359 123.719C564.88 123.903 565.232 124.071 565.416 124.224C565.599 124.377 565.768 124.638 565.922 125.005C566.043 125.25 566.182 125.449 566.335 125.602C566.519 125.756 566.687 125.893 566.84 126.016C567.024 126.138 567.178 126.276 567.3 126.429C567.423 126.582 567.483 126.797 567.483 127.072C567.483 127.317 567.423 127.562 567.3 127.807C567.178 128.022 567.039 128.16 566.886 128.221C566.672 128.343 566.274 128.466 565.692 128.588C565.109 128.68 564.406 128.787 563.578 128.91C562.751 129.002 561.801 129.109 560.73 129.232C559.688 129.323 558.601 129.431 557.467 129.553C557.1 133.351 556.732 137.01 556.365 140.532C556.028 144.054 555.859 147.193 555.859 149.949C555.859 151.358 555.936 152.644 556.089 153.808C556.273 154.972 556.533 155.982 556.87 156.84C557.207 157.667 557.605 158.31 558.065 158.769C558.555 159.229 559.106 159.458 559.718 159.458C560.27 159.458 560.776 159.213 561.235 158.723C561.694 158.203 562.154 157.498 562.613 156.61C563.072 155.722 563.532 154.666 563.992 153.441C564.482 152.216 565.002 150.868 565.553 149.398C565.83 148.632 566.228 148.25 566.748 148.25C567.238 148.25 567.483 148.525 567.483 149.077C567.483 149.168 567.469 149.276 567.437 149.398C567.407 149.521 567.377 149.612 567.346 149.674ZM588.481 148.25C588.665 148.25 588.818 148.311 588.941 148.433C589.094 148.556 589.17 148.74 589.17 148.985C589.17 149.23 589.124 149.459 589.033 149.674C588.573 150.96 588.068 152.17 587.517 153.303C586.996 154.436 586.506 155.447 586.046 156.335C585.494 157.345 584.958 158.295 584.438 159.183C583.795 160.193 583.075 161.158 582.278 162.077C581.513 162.965 580.67 163.761 579.752 164.466C578.832 165.139 577.837 165.675 576.765 166.073C575.693 166.472 574.559 166.671 573.365 166.671C572.476 166.671 571.496 166.517 570.424 166.211C569.383 165.905 568.403 165.338 567.483 164.512C566.595 163.685 565.86 162.552 565.278 161.112C564.665 159.673 564.359 157.82 564.359 155.554C564.359 154.512 564.466 153.456 564.681 152.384C564.864 151.312 565.141 150.286 565.508 149.306C565.844 148.326 566.228 147.407 566.657 146.55C567.116 145.692 567.575 144.942 568.035 144.299C568.831 143.197 569.674 142.171 570.562 141.221C571.45 140.241 572.338 139.399 573.227 138.695C574.146 137.96 575.034 137.393 575.891 136.995C576.749 136.597 577.546 136.398 578.281 136.398C579.445 136.398 580.456 136.842 581.314 137.73C582.202 138.618 582.646 139.889 582.646 141.543C582.646 142.982 582.278 144.483 581.543 146.045C580.808 147.576 579.89 149.077 578.786 150.547C577.684 152.017 576.504 153.379 575.248 154.635C573.993 155.891 572.844 156.932 571.803 157.759C572.354 159.137 573.059 160.147 573.916 160.791C574.774 161.434 575.646 161.755 576.535 161.755C577.914 161.755 579.139 161.311 580.211 160.423C581.314 159.535 582.294 158.448 583.152 157.162C584.04 155.875 584.805 154.528 585.448 153.119C586.123 151.71 586.72 150.47 587.241 149.398C587.425 149.031 587.608 148.755 587.792 148.571C587.976 148.357 588.206 148.25 588.481 148.25ZM570.608 150.455C570.608 152.262 570.745 153.854 571.022 155.232C571.634 154.62 572.247 153.931 572.86 153.165C573.503 152.369 574.069 151.557 574.559 150.73C575.08 149.903 575.494 149.061 575.8 148.204C576.137 147.346 576.305 146.519 576.305 145.723C576.305 144.498 576.045 143.549 575.524 142.875C575.003 142.201 574.483 141.864 573.962 141.864C573.656 141.864 573.304 142.063 572.905 142.462C572.538 142.829 572.17 143.38 571.803 144.115C571.466 144.85 571.175 145.754 570.93 146.826C570.715 147.867 570.608 149.077 570.608 150.455ZM609.708 149.674C609.005 152.062 608.284 154.267 607.549 156.289C606.814 158.31 606.033 160.056 605.206 161.526C604.379 162.996 603.46 164.144 602.449 164.971C601.469 165.798 600.35 166.211 599.095 166.211C597.564 166.211 596.323 165.446 595.373 163.914C594.454 162.352 593.995 160.301 593.995 157.759C593.995 156.656 594.041 155.615 594.133 154.635C594.255 153.655 594.378 152.706 594.501 151.787C594.653 150.868 594.776 149.98 594.868 149.122C594.991 148.265 595.051 147.423 595.051 146.596C595.051 145.708 594.945 145.126 594.73 144.85C594.515 144.575 594.24 144.437 593.903 144.437C593.842 144.437 593.78 144.452 593.719 144.483C593.658 144.483 593.535 144.498 593.352 144.529C593.199 144.529 592.954 144.559 592.617 144.621C592.31 144.651 591.881 144.697 591.33 144.758C590.993 145.493 590.717 146.121 590.503 146.642C590.289 147.132 590.104 147.561 589.951 147.928C589.799 148.296 589.66 148.617 589.538 148.893C589.447 149.138 589.355 149.398 589.262 149.674C589.017 150.256 588.803 150.623 588.619 150.776C588.435 150.899 588.221 150.96 587.976 150.96C587.792 150.96 587.639 150.883 587.517 150.73C587.363 150.577 587.286 150.363 587.286 150.087C587.286 149.903 587.332 149.689 587.424 149.444C587.517 149.168 587.623 148.832 587.746 148.433C587.899 148.005 588.053 147.469 588.206 146.826C588.389 146.182 588.573 145.386 588.757 144.437C588.144 144.161 587.623 143.518 587.195 142.507C586.735 141.466 586.506 140.257 586.506 138.878C586.506 137.745 586.705 136.597 587.103 135.433C587.471 134.269 587.93 133.213 588.481 132.263C589.063 131.283 589.676 130.487 590.319 129.875C590.993 129.262 591.59 128.956 592.111 128.956C592.785 128.956 593.352 129.369 593.811 130.196C594.302 130.992 594.547 131.911 594.547 132.952C594.547 133.504 594.485 134.07 594.362 134.652C594.24 135.203 594.103 135.724 593.949 136.214C593.826 136.673 593.704 137.102 593.581 137.5C593.459 137.868 593.398 138.159 593.398 138.373C593.398 138.649 593.505 138.787 593.719 138.787C593.872 138.787 594.148 138.71 594.547 138.557L596.798 137.546C597.624 137.209 598.329 137.041 598.911 137.041C599.892 137.041 600.535 137.347 600.84 137.96C601.178 138.572 601.346 139.476 601.346 140.67C601.346 141.191 601.285 142.109 601.163 143.426C601.04 144.712 600.902 146.152 600.749 147.744C600.627 149.306 600.504 150.868 600.382 152.43C600.29 153.992 600.244 155.263 600.244 156.243C600.244 157.315 600.35 158.111 600.565 158.632C600.81 159.122 601.316 159.367 602.081 159.367C602.633 159.367 603.169 159.045 603.69 158.402C604.241 157.759 604.761 156.947 605.251 155.967C605.741 154.987 606.201 153.915 606.63 152.752C607.09 151.588 607.503 150.47 607.87 149.398C608.147 148.632 608.545 148.25 609.065 148.25C609.555 148.25 609.8 148.525 609.8 149.077C609.8 149.168 609.786 149.26 609.754 149.352C609.754 149.444 609.74 149.551 609.708 149.674Z" fill="#484848"/>
<defs>
<linearGradient id="paint0_linear" x1="399" y1="149" x2="-1.89531e-06" y2="149" gradientUnits="userSpaceOnUse">
<stop stop-color="#F52424"/>
<stop offset="1" stop-color="#FF006B" stop-opacity="0.74"/>
</linearGradient>
<linearGradient id="paint1_linear" x1="45" y1="56.5" x2="349" y2="250" gradientUnits="userSpaceOnUse">
<stop stop-color="#FF006B" stop-opacity="0.74"/>
<stop offset="1" stop-color="#F52424"/>
</linearGradient>
</defs>
</svg>
